<svg xmlns="http://www.w3.org/2000/svg" xmlns:xlink="http://www.w3.org/1999/xlink" contentStyleType="text/css" data-diagram-type="CLASS" height="322px" preserveAspectRatio="none" style="width:6200px;height:322px;background:#FFFFFF;" version="1.1" viewBox="0 0 6200 322" width="6200px" zoomAndPan="magnify"><defs/><g><!--entity Feature_User--><g id="elem_Feature_User"><ellipse cx="2918.1685" cy="14" fill="#F1F1F1" rx="8" ry="8" style="stroke:#181818;stroke-width:0.5;"/><path d="M2918.1685,22 L2918.1685,49 M2905.1685,30 L2931.1685,30 M2918.1685,49 L2905.1685,64 M2918.1685,49 L2931.1685,64 " fill="transparent" style="stroke:#181818;stroke-width:0.5;"/><text fill="#000000" font-family="sans-serif" font-size="14" lengthAdjust="spacing" textLength="90.3369" x="2873" y="78.4951">Feature User</text></g><!--class comp_arc_sta__baselibs__filesystem--><g id="elem_comp_arc_sta__baselibs__filesystem"><rect fill="#F1F1F1" height="40" id="comp_arc_sta__baselibs__filesystem" rx="2.5" ry="2.5" style="stroke:#181818;stroke-width:0.5;" width="285.4492" x="5908.5" y="275.5"/><ellipse cx="5923.5" cy="291.5" fill="#ADD1B2" rx="11" ry="11" style="stroke:#181818;stroke-width:1;"/><path d="M5926.4688,297.1406 Q5925.8906,297.4375 5925.25,297.5781 Q5924.6094,297.7344 5923.9063,297.7344 Q5921.4063,297.7344 5920.0781,296.0938 Q5918.7656,294.4375 5918.7656,291.3125 Q5918.7656,288.1875 5920.0781,286.5313 Q5921.4063,284.875 5923.9063,284.875 Q5924.6094,284.875 5925.25,285.0313 Q5925.9063,285.1875 5926.4688,285.4844 L5926.4688,288.2031 Q5925.8438,287.625 5925.25,287.3594 Q5924.6563,287.0781 5924.0313,287.0781 Q5922.6875,287.0781 5922,288.1563 Q5921.3125,289.2188 5921.3125,291.3125 Q5921.3125,293.4063 5922,294.4844 Q5922.6875,295.5469 5924.0313,295.5469 Q5924.6563,295.5469 5925.25,295.2813 Q5925.8438,295 5926.4688,294.4219 L5926.4688,297.1406 Z " fill="#000000"/><text fill="#000000" font-family="sans-serif" font-size="14" lengthAdjust="spacing" textLength="253.4492" x="5937.5" y="296.3467">comp_arc_sta__baselibs__filesystem</text><line style="stroke:#181818;stroke-width:0.5;" x1="5909.5" x2="6192.9492" y1="307.5" y2="307.5"/></g><!--class logic_arc_int__baselibs__filesystem--><g id="elem_logic_arc_int__baselibs__filesystem"><rect fill="#F1F1F1" height="40" id="logic_arc_int__baselibs__filesystem" rx="2.5" ry="2.5" style="stroke:#181818;stroke-width:0.5;" width="276.4805" x="5913" y="158.5"/><ellipse cx="5928" cy="174.5" fill="#ADD1B2" rx="11" ry="11" style="stroke:#181818;stroke-width:1;"/><path d="M5930.9688,180.1406 Q5930.3906,180.4375 5929.75,180.5781 Q5929.1094,180.7344 5928.4063,180.7344 Q5925.9063,180.7344 5924.5781,179.0938 Q5923.2656,177.4375 5923.2656,174.3125 Q5923.2656,171.1875 5924.5781,169.5313 Q5925.9063,167.875 5928.4063,167.875 Q5929.1094,167.875 5929.75,168.0313 Q5930.4063,168.1875 5930.9688,168.4844 L5930.9688,171.2031 Q5930.3438,170.625 5929.75,170.3594 Q5929.1563,170.0781 5928.5313,170.0781 Q5927.1875,170.0781 5926.5,171.1563 Q5925.8125,172.2188 5925.8125,174.3125 Q5925.8125,176.4063 5926.5,177.4844 Q5927.1875,178.5469 5928.5313,178.5469 Q5929.1563,178.5469 5929.75,178.2813 Q5930.3438,178 5930.9688,177.4219 L5930.9688,180.1406 Z " fill="#000000"/><text fill="#000000" font-family="sans-serif" font-size="14" lengthAdjust="spacing" textLength="244.4805" x="5942" y="179.3467">logic_arc_int__baselibs__filesystem</text><line style="stroke:#181818;stroke-width:0.5;" x1="5914" x2="6188.4805" y1="190.5" y2="190.5"/></g><!--class logic_arc_int__baselibs__intrusive_list--><g id="elem_logic_arc_int__baselibs__intrusive_list"><rect fill="#F1F1F1" height="40" id="logic_arc_int__baselibs__intrusive_list" rx="2.5" ry="2.5" style="stroke:#181818;stroke-width:0.5;" width="293.0713" x="3119.5" y="158.5"/><ellipse cx="3134.5" cy="174.5" fill="#ADD1B2" rx="11" ry="11" style="stroke:#181818;stroke-width:1;"/><path d="M3137.4688,180.1406 Q3136.8906,180.4375 3136.25,180.5781 Q3135.6094,180.7344 3134.9063,180.7344 Q3132.4063,180.7344 3131.0781,179.0938 Q3129.7656,177.4375 3129.7656,174.3125 Q3129.7656,171.1875 3131.0781,169.5313 Q3132.4063,167.875 3134.9063,167.875 Q3135.6094,167.875 3136.25,168.0313 Q3136.9063,168.1875 3137.4688,168.4844 L3137.4688,171.2031 Q3136.8438,170.625 3136.25,170.3594 Q3135.6563,170.0781 3135.0313,170.0781 Q3133.6875,170.0781 3133,171.1563 Q3132.3125,172.2188 3132.3125,174.3125 Q3132.3125,176.4063 3133,177.4844 Q3133.6875,178.5469 3135.0313,178.5469 Q3135.6563,178.5469 3136.25,178.2813 Q3136.8438,178 3137.4688,177.4219 L3137.4688,180.1406 Z " fill="#000000"/><text fill="#000000" font-family="sans-serif" font-size="14" lengthAdjust="spacing" textLength="261.0713" x="3148.5" y="179.3467">logic_arc_int__baselibs__intrusive_list</text><line style="stroke:#181818;stroke-width:0.5;" x1="3120.5" x2="3411.5713" y1="190.5" y2="190.5"/></g><!--class logic_arc_int__baselibs__shared_future--><g id="elem_logic_arc_int__baselibs__shared_future"><rect fill="#F1F1F1" height="40" id="logic_arc_int__baselibs__shared_future" rx="2.5" ry="2.5" style="stroke:#181818;stroke-width:0.5;" width="302.0811" x="2145" y="158.5"/><ellipse cx="2160" cy="174.5" fill="#ADD1B2" rx="11" ry="11" style="stroke:#181818;stroke-width:1;"/><path d="M2162.9688,180.1406 Q2162.3906,180.4375 2161.75,180.5781 Q2161.1094,180.7344 2160.4063,180.7344 Q2157.9063,180.7344 2156.5781,179.0938 Q2155.2656,177.4375 2155.2656,174.3125 Q2155.2656,171.1875 2156.5781,169.5313 Q2157.9063,167.875 2160.4063,167.875 Q2161.1094,167.875 2161.75,168.0313 Q2162.4063,168.1875 2162.9688,168.4844 L2162.9688,171.2031 Q2162.3438,170.625 2161.75,170.3594 Q2161.1563,170.0781 2160.5313,170.0781 Q2159.1875,170.0781 2158.5,171.1563 Q2157.8125,172.2188 2157.8125,174.3125 Q2157.8125,176.4063 2158.5,177.4844 Q2159.1875,178.5469 2160.5313,178.5469 Q2161.1563,178.5469 2161.75,178.2813 Q2162.3438,178 2162.9688,177.4219 L2162.9688,180.1406 Z " fill="#000000"/><text fill="#000000" font-family="sans-serif" font-size="14" lengthAdjust="spacing" textLength="270.0811" x="2174" y="179.3467">logic_arc_int__baselibs__shared_future</text><line style="stroke:#181818;stroke-width:0.5;" x1="2146" x2="2446.0811" y1="190.5" y2="190.5"/></g><!--class logic_arc_int__baselibs__memory_shared--><g id="elem_logic_arc_int__baselibs__memory_shared"><rect fill="#F1F1F1" height="40" id="logic_arc_int__baselibs__memory_shared" rx="2.5" ry="2.5" style="stroke:#181818;stroke-width:0.5;" width="318.043" x="4832" y="158.5"/><ellipse cx="4847" cy="174.5" fill="#ADD1B2" rx="11" ry="11" style="stroke:#181818;stroke-width:1;"/><path d="M4849.9688,180.1406 Q4849.3906,180.4375 4848.75,180.5781 Q4848.1094,180.7344 4847.4063,180.7344 Q4844.9063,180.7344 4843.5781,179.0938 Q4842.2656,177.4375 4842.2656,174.3125 Q4842.2656,171.1875 4843.5781,169.5313 Q4844.9063,167.875 4847.4063,167.875 Q4848.1094,167.875 4848.75,168.0313 Q4849.4063,168.1875 4849.9688,168.4844 L4849.9688,171.2031 Q4849.3438,170.625 4848.75,170.3594 Q4848.1563,170.0781 4847.5313,170.0781 Q4846.1875,170.0781 4845.5,171.1563 Q4844.8125,172.2188 4844.8125,174.3125 Q4844.8125,176.4063 4845.5,177.4844 Q4846.1875,178.5469 4847.5313,178.5469 Q4848.1563,178.5469 4848.75,178.2813 Q4849.3438,178 4849.9688,177.4219 L4849.9688,180.1406 Z " fill="#000000"/><text fill="#000000" font-family="sans-serif" font-size="14" lengthAdjust="spacing" textLength="286.043" x="4861" y="179.3467">logic_arc_int__baselibs__memory_shared</text><line style="stroke:#181818;stroke-width:0.5;" x1="4833" x2="5149.043" y1="190.5" y2="190.5"/></g><!--class logic_arc_int__baselibs__message_passing--><g id="elem_logic_arc_int__baselibs__message_passing"><rect fill="#F1F1F1" height="40" id="logic_arc_int__baselibs__message_passing" rx="2.5" ry="2.5" style="stroke:#181818;stroke-width:0.5;" width="328.167" x="3791" y="158.5"/><ellipse cx="3806" cy="174.5" fill="#ADD1B2" rx="11" ry="11" style="stroke:#181818;stroke-width:1;"/><path d="M3808.9688,180.1406 Q3808.3906,180.4375 3807.75,180.5781 Q3807.1094,180.7344 3806.4063,180.7344 Q3803.9063,180.7344 3802.5781,179.0938 Q3801.2656,177.4375 3801.2656,174.3125 Q3801.2656,171.1875 3802.5781,169.5313 Q3803.9063,167.875 3806.4063,167.875 Q3807.1094,167.875 3807.75,168.0313 Q3808.4063,168.1875 3808.9688,168.4844 L3808.9688,171.2031 Q3808.3438,170.625 3807.75,170.3594 Q3807.1563,170.0781 3806.5313,170.0781 Q3805.1875,170.0781 3804.5,171.1563 Q3803.8125,172.2188 3803.8125,174.3125 Q3803.8125,176.4063 3804.5,177.4844 Q3805.1875,178.5469 3806.5313,178.5469 Q3807.1563,178.5469 3807.75,178.2813 Q3808.3438,178 3808.9688,177.4219 L3808.9688,180.1406 Z " fill="#000000"/><text fill="#000000" font-family="sans-serif" font-size="14" lengthAdjust="spacing" textLength="296.167" x="3820" y="179.3467">logic_arc_int__baselibs__message_passing</text><line style="stroke:#181818;stroke-width:0.5;" x1="3792" x2="4118.167" y1="190.5" y2="190.5"/></g><!--class comp_arc_sta__baselibs__containers--><g id="elem_comp_arc_sta__baselibs__containers"><rect fill="#F1F1F1" height="40" id="comp_arc_sta__baselibs__containers" rx="2.5" ry="2.5" style="stroke:#181818;stroke-width:0.5;" width="287.1445" x="3289.5" y="275.5"/><ellipse cx="3304.5" cy="291.5" fill="#ADD1B2" rx="11" ry="11" style="stroke:#181818;stroke-width:1;"/><path d="M3307.4688,297.1406 Q3306.8906,297.4375 3306.25,297.5781 Q3305.6094,297.7344 3304.9063,297.7344 Q3302.4063,297.7344 3301.0781,296.0938 Q3299.7656,294.4375 3299.7656,291.3125 Q3299.7656,288.1875 3301.0781,286.5313 Q3302.4063,284.875 3304.9063,284.875 Q3305.6094,284.875 3306.25,285.0313 Q3306.9063,285.1875 3307.4688,285.4844 L3307.4688,288.2031 Q3306.8438,287.625 3306.25,287.3594 Q3305.6563,287.0781 3305.0313,287.0781 Q3303.6875,287.0781 3303,288.1563 Q3302.3125,289.2188 3302.3125,291.3125 Q3302.3125,293.4063 3303,294.4844 Q3303.6875,295.5469 3305.0313,295.5469 Q3305.6563,295.5469 3306.25,295.2813 Q3306.8438,295 3307.4688,294.4219 L3307.4688,297.1406 Z " fill="#000000"/><text fill="#000000" font-family="sans-serif" font-size="14" lengthAdjust="spacing" textLength="255.1445" x="3318.5" y="296.3467">comp_arc_sta__baselibs__containers</text><line style="stroke:#181818;stroke-width:0.5;" x1="3290.5" x2="3575.6445" y1="307.5" y2="307.5"/></g><!--class comp_arc_sta__baselibs__bit_manipulation--><g id="elem_comp_arc_sta__baselibs__bit_manipulation"><rect fill="#F1F1F1" height="40" id="comp_arc_sta__baselibs__bit_manipulation" rx="2.5" ry="2.5" style="stroke:#181818;stroke-width:0.5;" width="330.8057" x="5366.5" y="275.5"/><ellipse cx="5381.5" cy="291.5" fill="#ADD1B2" rx="11" ry="11" style="stroke:#181818;stroke-width:1;"/><path d="M5384.4688,297.1406 Q5383.8906,297.4375 5383.25,297.5781 Q5382.6094,297.7344 5381.9063,297.7344 Q5379.4063,297.7344 5378.0781,296.0938 Q5376.7656,294.4375 5376.7656,291.3125 Q5376.7656,288.1875 5378.0781,286.5313 Q5379.4063,284.875 5381.9063,284.875 Q5382.6094,284.875 5383.25,285.0313 Q5383.9063,285.1875 5384.4688,285.4844 L5384.4688,288.2031 Q5383.8438,287.625 5383.25,287.3594 Q5382.6563,287.0781 5382.0313,287.0781 Q5380.6875,287.0781 5380,288.1563 Q5379.3125,289.2188 5379.3125,291.3125 Q5379.3125,293.4063 5380,294.4844 Q5380.6875,295.5469 5382.0313,295.5469 Q5382.6563,295.5469 5383.25,295.2813 Q5383.8438,295 5384.4688,294.4219 L5384.4688,297.1406 Z " fill="#000000"/><text fill="#000000" font-family="sans-serif" font-size="14" lengthAdjust="spacing" textLength="298.8057" x="5395.5" y="296.3467">comp_arc_sta__baselibs__bit_manipulation</text><line style="stroke:#181818;stroke-width:0.5;" x1="5367.5" x2="5696.3057" y1="307.5" y2="307.5"/></g><!--class logic_arc_int__baselibs__bit_manipulation--><g id="elem_logic_arc_int__baselibs__bit_manipulation"><rect fill="#F1F1F1" height="40" id="logic_arc_int__baselibs__bit_manipulation" rx="2.5" ry="2.5" style="stroke:#181818;stroke-width:0.5;" width="321.8369" x="5185" y="158.5"/><ellipse cx="5200" cy="174.5" fill="#ADD1B2" rx="11" ry="11" style="stroke:#181818;stroke-width:1;"/><path d="M5202.9688,180.1406 Q5202.3906,180.4375 5201.75,180.5781 Q5201.1094,180.7344 5200.4063,180.7344 Q5197.9063,180.7344 5196.5781,179.0938 Q5195.2656,177.4375 5195.2656,174.3125 Q5195.2656,171.1875 5196.5781,169.5313 Q5197.9063,167.875 5200.4063,167.875 Q5201.1094,167.875 5201.75,168.0313 Q5202.4063,168.1875 5202.9688,168.4844 L5202.9688,171.2031 Q5202.3438,170.625 5201.75,170.3594 Q5201.1563,170.0781 5200.5313,170.0781 Q5199.1875,170.0781 5198.5,171.1563 Q5197.8125,172.2188 5197.8125,174.3125 Q5197.8125,176.4063 5198.5,177.4844 Q5199.1875,178.5469 5200.5313,178.5469 Q5201.1563,178.5469 5201.75,178.2813 Q5202.3438,178 5202.9688,177.4219 L5202.9688,180.1406 Z " fill="#000000"/><text fill="#000000" font-family="sans-serif" font-size="14" lengthAdjust="spacing" textLength="289.8369" x="5214" y="179.3467">logic_arc_int__baselibs__bit_manipulation</text><line style="stroke:#181818;stroke-width:0.5;" x1="5186" x2="5505.8369" y1="190.5" y2="190.5"/></g><!--class comp_arc_sta__baselibs__utils--><g id="elem_comp_arc_sta__baselibs__utils"><rect fill="#F1F1F1" height="40" id="comp_arc_sta__baselibs__utils" rx="2.5" ry="2.5" style="stroke:#181818;stroke-width:0.5;" width="242.9502" x="4305.5" y="275.5"/><ellipse cx="4320.5" cy="291.5" fill="#ADD1B2" rx="11" ry="11" style="stroke:#181818;stroke-width:1;"/><path d="M4323.4688,297.1406 Q4322.8906,297.4375 4322.25,297.5781 Q4321.6094,297.7344 4320.9063,297.7344 Q4318.4063,297.7344 4317.0781,296.0938 Q4315.7656,294.4375 4315.7656,291.3125 Q4315.7656,288.1875 4317.0781,286.5313 Q4318.4063,284.875 4320.9063,284.875 Q4321.6094,284.875 4322.25,285.0313 Q4322.9063,285.1875 4323.4688,285.4844 L4323.4688,288.2031 Q4322.8438,287.625 4322.25,287.3594 Q4321.6563,287.0781 4321.0313,287.0781 Q4319.6875,287.0781 4319,288.1563 Q4318.3125,289.2188 4318.3125,291.3125 Q4318.3125,293.4063 4319,294.4844 Q4319.6875,295.5469 4321.0313,295.5469 Q4321.6563,295.5469 4322.25,295.2813 Q4322.8438,295 4323.4688,294.4219 L4323.4688,297.1406 Z " fill="#000000"/><text fill="#000000" font-family="sans-serif" font-size="14" lengthAdjust="spacing" textLength="210.9502" x="4334.5" y="296.3467">comp_arc_sta__baselibs__utils</text><line style="stroke:#181818;stroke-width:0.5;" x1="4306.5" x2="4547.4502" y1="307.5" y2="307.5"/></g><!--class logic_arc_int__baselibs__utils_scoped_op--><g id="elem_logic_arc_int__baselibs__utils_scoped_op"><rect fill="#F1F1F1" height="40" id="logic_arc_int__baselibs__utils_scoped_op" rx="2.5" ry="2.5" style="stroke:#181818;stroke-width:0.5;" width="315.377" x="4154.5" y="158.5"/><ellipse cx="4169.5" cy="174.5" fill="#ADD1B2" rx="11" ry="11" style="stroke:#181818;stroke-width:1;"/><path d="M4172.4688,180.1406 Q4171.8906,180.4375 4171.25,180.5781 Q4170.6094,180.7344 4169.9063,180.7344 Q4167.4063,180.7344 4166.0781,179.0938 Q4164.7656,177.4375 4164.7656,174.3125 Q4164.7656,171.1875 4166.0781,169.5313 Q4167.4063,167.875 4169.9063,167.875 Q4170.6094,167.875 4171.25,168.0313 Q4171.9063,168.1875 4172.4688,168.4844 L4172.4688,171.2031 Q4171.8438,170.625 4171.25,170.3594 Q4170.6563,170.0781 4170.0313,170.0781 Q4168.6875,170.0781 4168,171.1563 Q4167.3125,172.2188 4167.3125,174.3125 Q4167.3125,176.4063 4168,177.4844 Q4168.6875,178.5469 4170.0313,178.5469 Q4170.6563,178.5469 4171.25,178.2813 Q4171.8438,178 4172.4688,177.4219 L4172.4688,180.1406 Z " fill="#000000"/><text fill="#000000" font-family="sans-serif" font-size="14" lengthAdjust="spacing" textLength="283.377" x="4183.5" y="179.3467">logic_arc_int__baselibs__utils_scoped_op</text><line style="stroke:#181818;stroke-width:0.5;" x1="4155.5" x2="4468.877" y1="190.5" y2="190.5"/></g><!--class comp_arc_sta__baselibs__concurrency--><g id="elem_comp_arc_sta__baselibs__concurrency"><rect fill="#F1F1F1" height="40" id="comp_arc_sta__baselibs__concurrency" rx="2.5" ry="2.5" style="stroke:#181818;stroke-width:0.5;" width="300.2012" x="1612" y="275.5"/><ellipse cx="1627" cy="291.5" fill="#ADD1B2" rx="11" ry="11" style="stroke:#181818;stroke-width:1;"/><path d="M1629.9688,297.1406 Q1629.3906,297.4375 1628.75,297.5781 Q1628.1094,297.7344 1627.4063,297.7344 Q1624.9063,297.7344 1623.5781,296.0938 Q1622.2656,294.4375 1622.2656,291.3125 Q1622.2656,288.1875 1623.5781,286.5313 Q1624.9063,284.875 1627.4063,284.875 Q1628.1094,284.875 1628.75,285.0313 Q1629.4063,285.1875 1629.9688,285.4844 L1629.9688,288.2031 Q1629.3438,287.625 1628.75,287.3594 Q1628.1563,287.0781 1627.5313,287.0781 Q1626.1875,287.0781 1625.5,288.1563 Q1624.8125,289.2188 1624.8125,291.3125 Q1624.8125,293.4063 1625.5,294.4844 Q1626.1875,295.5469 1627.5313,295.5469 Q1628.1563,295.5469 1628.75,295.2813 Q1629.3438,295 1629.9688,294.4219 L1629.9688,297.1406 Z " fill="#000000"/><text fill="#000000" font-family="sans-serif" font-size="14" lengthAdjust="spacing" textLength="268.2012" x="1641" y="296.3467">comp_arc_sta__baselibs__concurrency</text><line style="stroke:#181818;stroke-width:0.5;" x1="1613" x2="1911.2012" y1="307.5" y2="307.5"/></g><!--class logic_arc_int__baselibs__promise--><g id="elem_logic_arc_int__baselibs__promise"><rect fill="#F1F1F1" height="40" id="logic_arc_int__baselibs__promise" rx="2.5" ry="2.5" style="stroke:#181818;stroke-width:0.5;" width="261.1885" x="866.5" y="158.5"/><ellipse cx="881.5" cy="174.5" fill="#ADD1B2" rx="11" ry="11" style="stroke:#181818;stroke-width:1;"/><path d="M884.4688,180.1406 Q883.8906,180.4375 883.25,180.5781 Q882.6094,180.7344 881.9063,180.7344 Q879.4063,180.7344 878.0781,179.0938 Q876.7656,177.4375 876.7656,174.3125 Q876.7656,171.1875 878.0781,169.5313 Q879.4063,167.875 881.9063,167.875 Q882.6094,167.875 883.25,168.0313 Q883.9063,168.1875 884.4688,168.4844 L884.4688,171.2031 Q883.8438,170.625 883.25,170.3594 Q882.6563,170.0781 882.0313,170.0781 Q880.6875,170.0781 880,171.1563 Q879.3125,172.2188 879.3125,174.3125 Q879.3125,176.4063 880,177.4844 Q880.6875,178.5469 882.0313,178.5469 Q882.6563,178.5469 883.25,178.2813 Q883.8438,178 884.4688,177.4219 L884.4688,180.1406 Z " fill="#000000"/><text fill="#000000" font-family="sans-serif" font-size="14" lengthAdjust="spacing" textLength="229.1885" x="895.5" y="179.3467">logic_arc_int__baselibs__promise</text><line style="stroke:#181818;stroke-width:0.5;" x1="867.5" x2="1126.6885" y1="190.5" y2="190.5"/></g><!--class logic_arc_int__baselibs__executor--><g id="elem_logic_arc_int__baselibs__executor"><rect fill="#F1F1F1" height="40" id="logic_arc_int__baselibs__executor" rx="2.5" ry="2.5" style="stroke:#181818;stroke-width:0.5;" width="266.4385" x="565" y="158.5"/><ellipse cx="580" cy="174.5" fill="#ADD1B2" rx="11" ry="11" style="stroke:#181818;stroke-width:1;"/><path d="M582.9688,180.1406 Q582.3906,180.4375 581.75,180.5781 Q581.1094,180.7344 580.4063,180.7344 Q577.9063,180.7344 576.5781,179.0938 Q575.2656,177.4375 575.2656,174.3125 Q575.2656,171.1875 576.5781,169.5313 Q577.9063,167.875 580.4063,167.875 Q581.1094,167.875 581.75,168.0313 Q582.4063,168.1875 582.9688,168.4844 L582.9688,171.2031 Q582.3438,170.625 581.75,170.3594 Q581.1563,170.0781 580.5313,170.0781 Q579.1875,170.0781 578.5,171.1563 Q577.8125,172.2188 577.8125,174.3125 Q577.8125,176.4063 578.5,177.4844 Q579.1875,178.5469 580.5313,178.5469 Q581.1563,178.5469 581.75,178.2813 Q582.3438,178 582.9688,177.4219 L582.9688,180.1406 Z " fill="#000000"/><text fill="#000000" font-family="sans-serif" font-size="14" lengthAdjust="spacing" textLength="234.4385" x="594" y="179.3467">logic_arc_int__baselibs__executor</text><line style="stroke:#181818;stroke-width:0.5;" x1="566" x2="830.4385" y1="190.5" y2="190.5"/></g><!--class logic_arc_int__baselibs__condition_variable--><g id="elem_logic_arc_int__baselibs__condition_variable"><rect fill="#F1F1F1" height="40" id="logic_arc_int__baselibs__condition_variable" rx="2.5" ry="2.5" style="stroke:#181818;stroke-width:0.5;" width="332.7539" x="2751.5" y="158.5"/><ellipse cx="2766.5" cy="174.5" fill="#ADD1B2" rx="11" ry="11" style="stroke:#181818;stroke-width:1;"/><path d="M2769.4688,180.1406 Q2768.8906,180.4375 2768.25,180.5781 Q2767.6094,180.7344 2766.9063,180.7344 Q2764.4063,180.7344 2763.0781,179.0938 Q2761.7656,177.4375 2761.7656,174.3125 Q2761.7656,171.1875 2763.0781,169.5313 Q2764.4063,167.875 2766.9063,167.875 Q2767.6094,167.875 2768.25,168.0313 Q2768.9063,168.1875 2769.4688,168.4844 L2769.4688,171.2031 Q2768.8438,170.625 2768.25,170.3594 Q2767.6563,170.0781 2767.0313,170.0781 Q2765.6875,170.0781 2765,171.1563 Q2764.3125,172.2188 2764.3125,174.3125 Q2764.3125,176.4063 2765,177.4844 Q2765.6875,178.5469 2767.0313,178.5469 Q2767.6563,178.5469 2768.25,178.2813 Q2768.8438,178 2769.4688,177.4219 L2769.4688,180.1406 Z " fill="#000000"/><text fill="#000000" font-family="sans-serif" font-size="14" lengthAdjust="spacing" textLength="300.7539" x="2780.5" y="179.3467">logic_arc_int__baselibs__condition_variable</text><line style="stroke:#181818;stroke-width:0.5;" x1="2752.5" x2="3083.2539" y1="190.5" y2="190.5"/></g><!--class logic_arc_int__baselibs__json--><g id="elem_logic_arc_int__baselibs__json"><rect fill="#F1F1F1" height="40" id="logic_arc_int__baselibs__json" rx="2.5" ry="2.5" style="stroke:#181818;stroke-width:0.5;" width="233.168" x="15.5" y="158.5"/><ellipse cx="30.5" cy="174.5" fill="#ADD1B2" rx="11" ry="11" style="stroke:#181818;stroke-width:1;"/><path d="M33.4688,180.1406 Q32.8906,180.4375 32.25,180.5781 Q31.6094,180.7344 30.9063,180.7344 Q28.4063,180.7344 27.0781,179.0938 Q25.7656,177.4375 25.7656,174.3125 Q25.7656,171.1875 27.0781,169.5313 Q28.4063,167.875 30.9063,167.875 Q31.6094,167.875 32.25,168.0313 Q32.9063,168.1875 33.4688,168.4844 L33.4688,171.2031 Q32.8438,170.625 32.25,170.3594 Q31.6563,170.0781 31.0313,170.0781 Q29.6875,170.0781 29,171.1563 Q28.3125,172.2188 28.3125,174.3125 Q28.3125,176.4063 29,177.4844 Q29.6875,178.5469 31.0313,178.5469 Q31.6563,178.5469 32.25,178.2813 Q32.8438,178 33.4688,177.4219 L33.4688,180.1406 Z " fill="#000000"/><text fill="#000000" font-family="sans-serif" font-size="14" lengthAdjust="spacing" textLength="201.168" x="44.5" y="179.3467">logic_arc_int__baselibs__json</text><line style="stroke:#181818;stroke-width:0.5;" x1="16.5" x2="247.668" y1="190.5" y2="190.5"/></g><!--class logic_arc_int__baselibs__result--><g id="elem_logic_arc_int__baselibs__result"><rect fill="#F1F1F1" height="40" id="logic_arc_int__baselibs__result" rx="2.5" ry="2.5" style="stroke:#181818;stroke-width:0.5;" width="244.4609" x="286" y="158.5"/><ellipse cx="301" cy="174.5" fill="#ADD1B2" rx="11" ry="11" style="stroke:#181818;stroke-width:1;"/><path d="M303.9688,180.1406 Q303.3906,180.4375 302.75,180.5781 Q302.1094,180.7344 301.4063,180.7344 Q298.9063,180.7344 297.5781,179.0938 Q296.2656,177.4375 296.2656,174.3125 Q296.2656,171.1875 297.5781,169.5313 Q298.9063,167.875 301.4063,167.875 Q302.1094,167.875 302.75,168.0313 Q303.4063,168.1875 303.9688,168.4844 L303.9688,171.2031 Q303.3438,170.625 302.75,170.3594 Q302.1563,170.0781 301.5313,170.0781 Q300.1875,170.0781 299.5,171.1563 Q298.8125,172.2188 298.8125,174.3125 Q298.8125,176.4063 299.5,177.4844 Q300.1875,178.5469 301.5313,178.5469 Q302.1563,178.5469 302.75,178.2813 Q303.3438,178 303.9688,177.4219 L303.9688,180.1406 Z " fill="#000000"/><text fill="#000000" font-family="sans-serif" font-size="14" lengthAdjust="spacing" textLength="212.4609" x="315" y="179.3467">logic_arc_int__baselibs__result</text><line style="stroke:#181818;stroke-width:0.5;" x1="287" x2="529.4609" y1="190.5" y2="190.5"/></g><!--class comp_arc_sta__baselibs__memory_shared--><g id="elem_comp_arc_sta__baselibs__memory_shared"><rect fill="#F1F1F1" height="40" id="comp_arc_sta__baselibs__memory_shared" rx="2.5" ry="2.5" style="stroke:#181818;stroke-width:0.5;" width="327.0117" x="4827.5" y="275.5"/><ellipse cx="4842.5" cy="291.5" fill="#ADD1B2" rx="11" ry="11" style="stroke:#181818;stroke-width:1;"/><path d="M4845.4688,297.1406 Q4844.8906,297.4375 4844.25,297.5781 Q4843.6094,297.7344 4842.9063,297.7344 Q4840.4063,297.7344 4839.0781,296.0938 Q4837.7656,294.4375 4837.7656,291.3125 Q4837.7656,288.1875 4839.0781,286.5313 Q4840.4063,284.875 4842.9063,284.875 Q4843.6094,284.875 4844.25,285.0313 Q4844.9063,285.1875 4845.4688,285.4844 L4845.4688,288.2031 Q4844.8438,287.625 4844.25,287.3594 Q4843.6563,287.0781 4843.0313,287.0781 Q4841.6875,287.0781 4841,288.1563 Q4840.3125,289.2188 4840.3125,291.3125 Q4840.3125,293.4063 4841,294.4844 Q4841.6875,295.5469 4843.0313,295.5469 Q4843.6563,295.5469 4844.25,295.2813 Q4844.8438,295 4845.4688,294.4219 L4845.4688,297.1406 Z " fill="#000000"/><text fill="#000000" font-family="sans-serif" font-size="14" lengthAdjust="spacing" textLength="295.0117" x="4856.5" y="296.3467">comp_arc_sta__baselibs__memory_shared</text><line style="stroke:#181818;stroke-width:0.5;" x1="4828.5" x2="5153.5117" y1="307.5" y2="307.5"/></g><!--class logic_arc_int__baselibs__utils_base64--><g id="elem_logic_arc_int__baselibs__utils_base64"><rect fill="#F1F1F1" height="40" id="logic_arc_int__baselibs__utils_base64" rx="2.5" ry="2.5" style="stroke:#181818;stroke-width:0.5;" width="292.1689" x="4505" y="158.5"/><ellipse cx="4520" cy="174.5" fill="#ADD1B2" rx="11" ry="11" style="stroke:#181818;stroke-width:1;"/><path d="M4522.9688,180.1406 Q4522.3906,180.4375 4521.75,180.5781 Q4521.1094,180.7344 4520.4063,180.7344 Q4517.9063,180.7344 4516.5781,179.0938 Q4515.2656,177.4375 4515.2656,174.3125 Q4515.2656,171.1875 4516.5781,169.5313 Q4517.9063,167.875 4520.4063,167.875 Q4521.1094,167.875 4521.75,168.0313 Q4522.4063,168.1875 4522.9688,168.4844 L4522.9688,171.2031 Q4522.3438,170.625 4521.75,170.3594 Q4521.1563,170.0781 4520.5313,170.0781 Q4519.1875,170.0781 4518.5,171.1563 Q4517.8125,172.2188 4517.8125,174.3125 Q4517.8125,176.4063 4518.5,177.4844 Q4519.1875,178.5469 4520.5313,178.5469 Q4521.1563,178.5469 4521.75,178.2813 Q4522.3438,178 4522.9688,177.4219 L4522.9688,180.1406 Z " fill="#000000"/><text fill="#000000" font-family="sans-serif" font-size="14" lengthAdjust="spacing" textLength="260.1689" x="4534" y="179.3467">logic_arc_int__baselibs__utils_base64</text><line style="stroke:#181818;stroke-width:0.5;" x1="4506" x2="4796.1689" y1="190.5" y2="190.5"/></g><!--class comp_arc_sta__baselibs__message_passing--><g id="elem_comp_arc_sta__baselibs__message_passing"><rect fill="#F1F1F1" height="40" id="comp_arc_sta__baselibs__message_passing" rx="2.5" ry="2.5" style="stroke:#181818;stroke-width:0.5;" width="337.1357" x="3786.5" y="275.5"/><ellipse cx="3801.5" cy="291.5" fill="#ADD1B2" rx="11" ry="11" style="stroke:#181818;stroke-width:1;"/><path d="M3804.4688,297.1406 Q3803.8906,297.4375 3803.25,297.5781 Q3802.6094,297.7344 3801.9063,297.7344 Q3799.4063,297.7344 3798.0781,296.0938 Q3796.7656,294.4375 3796.7656,291.3125 Q3796.7656,288.1875 3798.0781,286.5313 Q3799.4063,284.875 3801.9063,284.875 Q3802.6094,284.875 3803.25,285.0313 Q3803.9063,285.1875 3804.4688,285.4844 L3804.4688,288.2031 Q3803.8438,287.625 3803.25,287.3594 Q3802.6563,287.0781 3802.0313,287.0781 Q3800.6875,287.0781 3800,288.1563 Q3799.3125,289.2188 3799.3125,291.3125 Q3799.3125,293.4063 3800,294.4844 Q3800.6875,295.5469 3802.0313,295.5469 Q3802.6563,295.5469 3803.25,295.2813 Q3803.8438,295 3804.4688,294.4219 L3804.4688,297.1406 Z " fill="#000000"/><text fill="#000000" font-family="sans-serif" font-size="14" lengthAdjust="spacing" textLength="305.1357" x="3815.5" y="296.3467">comp_arc_sta__baselibs__message_passing</text><line style="stroke:#181818;stroke-width:0.5;" x1="3787.5" x2="4122.6357" y1="307.5" y2="307.5"/></g><!--class logic_arc_int__baselibs__future--><g id="elem_logic_arc_int__baselibs__future"><rect fill="#F1F1F1" height="40" id="logic_arc_int__baselibs__future" rx="2.5" ry="2.5" style="stroke:#181818;stroke-width:0.5;" width="247.0791" x="1862.5" y="158.5"/><ellipse cx="1877.5" cy="174.5" fill="#ADD1B2" rx="11" ry="11" style="stroke:#181818;stroke-width:1;"/><path d="M1880.4688,180.1406 Q1879.8906,180.4375 1879.25,180.5781 Q1878.6094,180.7344 1877.9063,180.7344 Q1875.4063,180.7344 1874.0781,179.0938 Q1872.7656,177.4375 1872.7656,174.3125 Q1872.7656,171.1875 1874.0781,169.5313 Q1875.4063,167.875 1877.9063,167.875 Q1878.6094,167.875 1879.25,168.0313 Q1879.9063,168.1875 1880.4688,168.4844 L1880.4688,171.2031 Q1879.8438,170.625 1879.25,170.3594 Q1878.6563,170.0781 1878.0313,170.0781 Q1876.6875,170.0781 1876,171.1563 Q1875.3125,172.2188 1875.3125,174.3125 Q1875.3125,176.4063 1876,177.4844 Q1876.6875,178.5469 1878.0313,178.5469 Q1878.6563,178.5469 1879.25,178.2813 Q1879.8438,178 1880.4688,177.4219 L1880.4688,180.1406 Z " fill="#000000"/><text fill="#000000" font-family="sans-serif" font-size="14" lengthAdjust="spacing" textLength="215.0791" x="1891.5" y="179.3467">logic_arc_int__baselibs__future</text><line style="stroke:#181818;stroke-width:0.5;" x1="1863.5" x2="2108.5791" y1="190.5" y2="190.5"/></g><!--class logic_arc_int__baselibs__bit_mask_operator--><g id="elem_logic_arc_int__baselibs__bit_mask_operator"><rect fill="#F1F1F1" height="40" id="logic_arc_int__baselibs__bit_mask_operator" rx="2.5" ry="2.5" style="stroke:#181818;stroke-width:0.5;" width="334.6406" x="5542.5" y="158.5"/><ellipse cx="5557.5" cy="174.5" fill="#ADD1B2" rx="11" ry="11" style="stroke:#181818;stroke-width:1;"/><path d="M5560.4688,180.1406 Q5559.8906,180.4375 5559.25,180.5781 Q5558.6094,180.7344 5557.9063,180.7344 Q5555.4063,180.7344 5554.0781,179.0938 Q5552.7656,177.4375 5552.7656,174.3125 Q5552.7656,171.1875 5554.0781,169.5313 Q5555.4063,167.875 5557.9063,167.875 Q5558.6094,167.875 5559.25,168.0313 Q5559.9063,168.1875 5560.4688,168.4844 L5560.4688,171.2031 Q5559.8438,170.625 5559.25,170.3594 Q5558.6563,170.0781 5558.0313,170.0781 Q5556.6875,170.0781 5556,171.1563 Q5555.3125,172.2188 5555.3125,174.3125 Q5555.3125,176.4063 5556,177.4844 Q5556.6875,178.5469 5558.0313,178.5469 Q5558.6563,178.5469 5559.25,178.2813 Q5559.8438,178 5560.4688,177.4219 L5560.4688,180.1406 Z " fill="#000000"/><text fill="#000000" font-family="sans-serif" font-size="14" lengthAdjust="spacing" textLength="302.6406" x="5571.5" y="179.3467">logic_arc_int__baselibs__bit_mask_operator</text><line style="stroke:#181818;stroke-width:0.5;" x1="5543.5" x2="5876.1406" y1="190.5" y2="190.5"/></g><!--class logic_arc_int__baselibs__synchronized_queue--><g id="elem_logic_arc_int__baselibs__synchronized_queue"><rect fill="#F1F1F1" height="40" id="logic_arc_int__baselibs__synchronized_queue" rx="2.5" ry="2.5" style="stroke:#181818;stroke-width:0.5;" width="348.3604" x="1163" y="158.5"/><ellipse cx="1178" cy="174.5" fill="#ADD1B2" rx="11" ry="11" style="stroke:#181818;stroke-width:1;"/><path d="M1180.9688,180.1406 Q1180.3906,180.4375 1179.75,180.5781 Q1179.1094,180.7344 1178.4063,180.7344 Q1175.9063,180.7344 1174.5781,179.0938 Q1173.2656,177.4375 1173.2656,174.3125 Q1173.2656,171.1875 1174.5781,169.5313 Q1175.9063,167.875 1178.4063,167.875 Q1179.1094,167.875 1179.75,168.0313 Q1180.4063,168.1875 1180.9688,168.4844 L1180.9688,171.2031 Q1180.3438,170.625 1179.75,170.3594 Q1179.1563,170.0781 1178.5313,170.0781 Q1177.1875,170.0781 1176.5,171.1563 Q1175.8125,172.2188 1175.8125,174.3125 Q1175.8125,176.4063 1176.5,177.4844 Q1177.1875,178.5469 1178.5313,178.5469 Q1179.1563,178.5469 1179.75,178.2813 Q1180.3438,178 1180.9688,177.4219 L1180.9688,180.1406 Z " fill="#000000"/><text fill="#000000" font-family="sans-serif" font-size="14" lengthAdjust="spacing" textLength="316.3604" x="1192" y="179.3467">logic_arc_int__baselibs__synchronized_queue</text><line style="stroke:#181818;stroke-width:0.5;" x1="1164" x2="1510.3604" y1="190.5" y2="190.5"/></g><!--class logic_arc_int__baselibs__task_result--><g id="elem_logic_arc_int__baselibs__task_result"><rect fill="#F1F1F1" height="40" id="logic_arc_int__baselibs__task_result" rx="2.5" ry="2.5" style="stroke:#181818;stroke-width:0.5;" width="280.9307" x="1546.5" y="158.5"/><ellipse cx="1561.5" cy="174.5" fill="#ADD1B2" rx="11" ry="11" style="stroke:#181818;stroke-width:1;"/><path d="M1564.4688,180.1406 Q1563.8906,180.4375 1563.25,180.5781 Q1562.6094,180.7344 1561.9063,180.7344 Q1559.4063,180.7344 1558.0781,179.0938 Q1556.7656,177.4375 1556.7656,174.3125 Q1556.7656,171.1875 1558.0781,169.5313 Q1559.4063,167.875 1561.9063,167.875 Q1562.6094,167.875 1563.25,168.0313 Q1563.9063,168.1875 1564.4688,168.4844 L1564.4688,171.2031 Q1563.8438,170.625 1563.25,170.3594 Q1562.6563,170.0781 1562.0313,170.0781 Q1560.6875,170.0781 1560,171.1563 Q1559.3125,172.2188 1559.3125,174.3125 Q1559.3125,176.4063 1560,177.4844 Q1560.6875,178.5469 1562.0313,178.5469 Q1562.6563,178.5469 1563.25,178.2813 Q1563.8438,178 1564.4688,177.4219 L1564.4688,180.1406 Z " fill="#000000"/><text fill="#000000" font-family="sans-serif" font-size="14" lengthAdjust="spacing" textLength="248.9307" x="1575.5" y="179.3467">logic_arc_int__baselibs__task_result</text><line style="stroke:#181818;stroke-width:0.5;" x1="1547.5" x2="1826.4307" y1="190.5" y2="190.5"/></g><!--class logic_arc_int__baselibs__dynamic_array--><g id="elem_logic_arc_int__baselibs__dynamic_array"><rect fill="#F1F1F1" height="40" id="logic_arc_int__baselibs__dynamic_array" rx="2.5" ry="2.5" style="stroke:#181818;stroke-width:0.5;" width="308.3496" x="3448" y="158.5"/><ellipse cx="3463" cy="174.5" fill="#ADD1B2" rx="11" ry="11" style="stroke:#181818;stroke-width:1;"/><path d="M3465.9688,180.1406 Q3465.3906,180.4375 3464.75,180.5781 Q3464.1094,180.7344 3463.4063,180.7344 Q3460.9063,180.7344 3459.5781,179.0938 Q3458.2656,177.4375 3458.2656,174.3125 Q3458.2656,171.1875 3459.5781,169.5313 Q3460.9063,167.875 3463.4063,167.875 Q3464.1094,167.875 3464.75,168.0313 Q3465.4063,168.1875 3465.9688,168.4844 L3465.9688,171.2031 Q3465.3438,170.625 3464.75,170.3594 Q3464.1563,170.0781 3463.5313,170.0781 Q3462.1875,170.0781 3461.5,171.1563 Q3460.8125,172.2188 3460.8125,174.3125 Q3460.8125,176.4063 3461.5,177.4844 Q3462.1875,178.5469 3463.5313,178.5469 Q3464.1563,178.5469 3464.75,178.2813 Q3465.3438,178 3465.9688,177.4219 L3465.9688,180.1406 Z " fill="#000000"/><text fill="#000000" font-family="sans-serif" font-size="14" lengthAdjust="spacing" textLength="276.3496" x="3477" y="179.3467">logic_arc_int__baselibs__dynamic_array</text><line style="stroke:#181818;stroke-width:0.5;" x1="3449" x2="3755.3496" y1="190.5" y2="190.5"/></g><!--class logic_arc_int__baselibs__task--><g id="elem_logic_arc_int__baselibs__task"><rect fill="#F1F1F1" height="40" id="logic_arc_int__baselibs__task" rx="2.5" ry="2.5" style="stroke:#181818;stroke-width:0.5;" width="234.0156" x="2482" y="158.5"/><ellipse cx="2497" cy="174.5" fill="#ADD1B2" rx="11" ry="11" style="stroke:#181818;stroke-width:1;"/><path d="M2499.9688,180.1406 Q2499.3906,180.4375 2498.75,180.5781 Q2498.1094,180.7344 2497.4063,180.7344 Q2494.9063,180.7344 2493.5781,179.0938 Q2492.2656,177.4375 2492.2656,174.3125 Q2492.2656,171.1875 2493.5781,169.5313 Q2494.9063,167.875 2497.4063,167.875 Q2498.1094,167.875 2498.75,168.0313 Q2499.4063,168.1875 2499.9688,168.4844 L2499.9688,171.2031 Q2499.3438,170.625 2498.75,170.3594 Q2498.1563,170.0781 2497.5313,170.0781 Q2496.1875,170.0781 2495.5,171.1563 Q2494.8125,172.2188 2494.8125,174.3125 Q2494.8125,176.4063 2495.5,177.4844 Q2496.1875,178.5469 2497.5313,178.5469 Q2498.1563,178.5469 2498.75,178.2813 Q2499.3438,178 2499.9688,177.4219 L2499.9688,180.1406 Z " fill="#000000"/><text fill="#000000" font-family="sans-serif" font-size="14" lengthAdjust="spacing" textLength="202.0156" x="2511" y="179.3467">logic_arc_int__baselibs__task</text><line style="stroke:#181818;stroke-width:0.5;" x1="2483" x2="2715.0156" y1="190.5" y2="190.5"/></g><!--class comp_arc_sta__baselibs__result--><g id="elem_comp_arc_sta__baselibs__result"><rect fill="#F1F1F1" height="40" id="comp_arc_sta__baselibs__result" rx="2.5" ry="2.5" style="stroke:#181818;stroke-width:0.5;" width="253.4297" x="284.5" y="275.5"/><ellipse cx="299.5" cy="291.5" fill="#ADD1B2" rx="11" ry="11" style="stroke:#181818;stroke-width:1;"/><path d="M302.4688,297.1406 Q301.8906,297.4375 301.25,297.5781 Q300.6094,297.7344 299.9063,297.7344 Q297.4063,297.7344 296.0781,296.0938 Q294.7656,294.4375 294.7656,291.3125 Q294.7656,288.1875 296.0781,286.5313 Q297.4063,284.875 299.9063,284.875 Q300.6094,284.875 301.25,285.0313 Q301.9063,285.1875 302.4688,285.4844 L302.4688,288.2031 Q301.8438,287.625 301.25,287.3594 Q300.6563,287.0781 300.0313,287.0781 Q298.6875,287.0781 298,288.1563 Q297.3125,289.2188 297.3125,291.3125 Q297.3125,293.4063 298,294.4844 Q298.6875,295.5469 300.0313,295.5469 Q300.6563,295.5469 301.25,295.2813 Q301.8438,295 302.4688,294.4219 L302.4688,297.1406 Z " fill="#000000"/><text fill="#000000" font-family="sans-serif" font-size="14" lengthAdjust="spacing" textLength="221.4297" x="313.5" y="296.3467">comp_arc_sta__baselibs__result</text><line style="stroke:#181818;stroke-width:0.5;" x1="285.5" x2="536.9297" y1="307.5" y2="307.5"/></g><!--class comp_arc_sta__baselibs__json--><g id="elem_comp_arc_sta__baselibs__json"><rect fill="#F1F1F1" height="40" id="comp_arc_sta__baselibs__json" rx="2.5" ry="2.5" style="stroke:#181818;stroke-width:0.5;" width="242.1367" x="7" y="275.5"/><ellipse cx="22" cy="291.5" fill="#ADD1B2" rx="11" ry="11" style="stroke:#181818;stroke-width:1;"/><path d="M24.9688,297.1406 Q24.3906,297.4375 23.75,297.5781 Q23.1094,297.7344 22.4063,297.7344 Q19.9063,297.7344 18.5781,296.0938 Q17.2656,294.4375 17.2656,291.3125 Q17.2656,288.1875 18.5781,286.5313 Q19.9063,284.875 22.4063,284.875 Q23.1094,284.875 23.75,285.0313 Q24.4063,285.1875 24.9688,285.4844 L24.9688,288.2031 Q24.3438,287.625 23.75,287.3594 Q23.1563,287.0781 22.5313,287.0781 Q21.1875,287.0781 20.5,288.1563 Q19.8125,289.2188 19.8125,291.3125 Q19.8125,293.4063 20.5,294.4844 Q21.1875,295.5469 22.5313,295.5469 Q23.1563,295.5469 23.75,295.2813 Q24.3438,295 24.9688,294.4219 L24.9688,297.1406 Z " fill="#000000"/><text fill="#000000" font-family="sans-serif" font-size="14" lengthAdjust="spacing" textLength="210.1367" x="36" y="296.3467">comp_arc_sta__baselibs__json</text><line style="stroke:#181818;stroke-width:0.5;" x1="8" x2="248.1367" y1="307.5" y2="307.5"/></g><!--reverse link logic_arc_int__baselibs__filesystem to comp_arc_sta__baselibs__filesystem--><g id="link_logic_arc_int__baselibs__filesystem_comp_arc_sta__baselibs__filesystem"><path codeLine="14" d="M6051,204.75 C6051,225.98 6051,253.94 6051,275.19 " fill="transparent" id="logic_arc_int__baselibs__filesystem-backto-comp_arc_sta__baselibs__filesystem" style="stroke:#181818;stroke-width:1;"/><polygon fill="#181818" points="6051,198.75,6047,207.75,6051,203.75,6055,207.75,6051,198.75" style="stroke:#181818;stroke-width:1;"/><text fill="#000000" font-family="sans-serif" font-size="13" lengthAdjust="spacing" textLength="76.9082" x="6052" y="241.5669">implements</text></g><!--link Feature_User to logic_arc_int__baselibs__intrusive_list--><g id="link_Feature_User_logic_arc_int__baselibs__intrusive_list"><path codeLine="16" d="M2963.14,61.75 C3028.33,86.67 3142.8353,130.4281 3210.5553,156.3081 " fill="transparent" id="Feature_User-to-logic_arc_int__baselibs__intrusive_list" style="stroke:#181818;stroke-width:1;"/><polygon fill="#181818" points="3216.16,158.45,3209.1809,151.5007,3211.4894,156.6651,3206.3251,158.9736,3216.16,158.45" style="stroke:#181818;stroke-width:1;"/><text fill="#000000" font-family="sans-serif" font-size="13" lengthAdjust="spacing" textLength="23.0103" x="3135" y="124.5669">use</text></g><!--link Feature_User to logic_arc_int__baselibs__shared_future--><g id="link_Feature_User_logic_arc_int__baselibs__shared_future"><path codeLine="17" d="M2872.77,54.17 C2770.45,76.05 2525.5474,128.4154 2390.8574,157.2154 " fill="transparent" id="Feature_User-to-logic_arc_int__baselibs__shared_future" style="stroke:#181818;stroke-width:1;"/><polygon fill="#181818" points="2384.99,158.47,2394.6274,160.4997,2389.8795,157.4245,2392.9547,152.6765,2384.99,158.47" style="stroke:#181818;stroke-width:1;"/><text fill="#000000" font-family="sans-serif" font-size="13" lengthAdjust="spacing" textLength="23.0103" x="2590" y="124.5669">use</text></g><!--link Feature_User to logic_arc_int__baselibs__memory_shared--><g id="link_Feature_User_logic_arc_int__baselibs__memory_shared"><path codeLine="18" d="M2963.21,46.21 C3173.44,54.36 4076.29,91.71 4814,158.5 C4819.85,159.03 4819.8267,159.0244 4825.8467,159.5944 " fill="transparent" id="Feature_User-to-logic_arc_int__baselibs__memory_shared" style="stroke:#181818;stroke-width:1;"/><polygon fill="#181818" points="4831.82,160.16,4823.2371,155.3294,4826.8423,159.6887,4822.483,163.2938,4831.82,160.16" style="stroke:#181818;stroke-width:1;"/><text fill="#000000" font-family="sans-serif" font-size="13" lengthAdjust="spacing" textLength="23.0103" x="4401" y="124.5669">use</text></g><!--link Feature_User to logic_arc_int__baselibs__message_passing--><g id="link_Feature_User_logic_arc_int__baselibs__message_passing"><path codeLine="19" d="M2963.23,50.3 C3108.44,68.92 3561.3588,127.0167 3800.6388,157.7067 " fill="transparent" id="Feature_User-to-logic_arc_int__baselibs__message_passing" style="stroke:#181818;stroke-width:1;"/><polygon fill="#181818" points="3806.59,158.47,3798.172,153.3575,3801.6306,157.8339,3797.1543,161.2925,3806.59,158.47" style="stroke:#181818;stroke-width:1;"/><text fill="#000000" font-family="sans-serif" font-size="13" lengthAdjust="spacing" textLength="23.0103" x="3561" y="124.5669">use</text></g><!--reverse link logic_arc_int__baselibs__intrusive_list to comp_arc_sta__baselibs__containers--><g id="link_logic_arc_int__baselibs__intrusive_list_comp_arc_sta__baselibs__containers"><path codeLine="20" d="M3298.8918,202.1527 C3329.8118,223.4427 3374.39,254.14 3405.24,275.38 " fill="transparent" id="logic_arc_int__baselibs__intrusive_list-backto-comp_arc_sta__baselibs__containers" style="stroke:#181818;stroke-width:1;"/><polygon fill="#181818" points="3293.95,198.75,3299.0943,207.1486,3298.0682,201.5856,3303.6312,200.5595,3293.95,198.75" style="stroke:#181818;stroke-width:1;"/><text fill="#000000" font-family="sans-serif" font-size="13" lengthAdjust="spacing" textLength="76.9082" x="3361" y="241.5669">implements</text></g><!--reverse link logic_arc_int__baselibs__bit_manipulation to comp_arc_sta__baselibs__bit_manipulation--><g id="link_logic_arc_int__baselibs__bit_manipulation_comp_arc_sta__baselibs__bit_manipulation"><path codeLine="21" d="M5382.2336,201.9049 C5416.6736,223.1949 5466.72,254.14 5501.08,275.38 " fill="transparent" id="logic_arc_int__baselibs__bit_manipulation-backto-comp_arc_sta__baselibs__bit_manipulation" style="stroke:#181818;stroke-width:1;"/><polygon fill="#181818" points="5377.13,198.75,5382.6821,206.8848,5381.383,201.3791,5386.8886,200.08,5377.13,198.75" style="stroke:#181818;stroke-width:1;"/><text fill="#000000" font-family="sans-serif" font-size="13" lengthAdjust="spacing" textLength="76.9082" x="5452" y="241.5669">implements</text></g><!--reverse link logic_arc_int__baselibs__utils_scoped_op to comp_arc_sta__baselibs__utils--><g id="link_logic_arc_int__baselibs__utils_scoped_op_comp_arc_sta__baselibs__utils"><path codeLine="22" d="M4335.4926,202.9926 C4356.7226,224.2226 4386.44,253.94 4407.69,275.19 " fill="transparent" id="logic_arc_int__baselibs__utils_scoped_op-backto-comp_arc_sta__baselibs__utils" style="stroke:#181818;stroke-width:1;"/><polygon fill="#181818" points="4331.25,198.75,4334.7855,207.9424,4334.7855,202.2855,4340.4424,202.2855,4331.25,198.75" style="stroke:#181818;stroke-width:1;"/><text fill="#000000" font-family="sans-serif" font-size="13" lengthAdjust="spacing" textLength="76.9082" x="4378" y="241.5669">implements</text></g><!--reverse link logic_arc_int__baselibs__promise to comp_arc_sta__baselibs__concurrency--><g id="link_logic_arc_int__baselibs__promise_comp_arc_sta__baselibs__concurrency"><path codeLine="23" d="M1129.6833,199.4422 C1271.4033,220.7522 1493.63,254.16 1635.32,275.46 " fill="transparent" id="logic_arc_int__baselibs__promise-backto-comp_arc_sta__baselibs__concurrency" style="stroke:#181818;stroke-width:1;"/><polygon fill="#181818" points="1123.75,198.55,1132.0552,203.8438,1128.6944,199.2935,1133.2447,195.9327,1123.75,198.55" style="stroke:#181818;stroke-width:1;"/><text fill="#000000" font-family="sans-serif" font-size="13" lengthAdjust="spacing" textLength="76.9082" x="1427" y="241.5669">implements</text></g><!--reverse link logic_arc_int__baselibs__executor to comp_arc_sta__baselibs__concurrency--><g id="link_logic_arc_int__baselibs__executor_comp_arc_sta__baselibs__concurrency"><path codeLine="24" d="M837.3355,197.0694 C843.2955,197.7994 843.23,197.8 849,198.5 C1026.25,220.09 1070.45,226.58 1248,245.5 C1370.34,258.54 1509.24,271.68 1611.78,281.07 " fill="transparent" id="logic_arc_int__baselibs__executor-backto-comp_arc_sta__baselibs__concurrency" style="stroke:#181818;stroke-width:1;"/><polygon fill="#181818" points="831.38,196.34,839.8269,201.4045,836.3429,196.9479,840.7995,193.4638,831.38,196.34" style="stroke:#181818;stroke-width:1;"/><text fill="#000000" font-family="sans-serif" font-size="13" lengthAdjust="spacing" textLength="76.9082" x="1249" y="241.5669">implements</text></g><!--link Feature_User to logic_arc_int__baselibs__utils_scoped_op--><g id="link_Feature_User_logic_arc_int__baselibs__utils_scoped_op"><path codeLine="25" d="M2963.09,48.49 C3123.05,62.68 3678.24,112.37 4136,158.5 C4141.96,159.1 4142.0714,159.1066 4148.2014,159.7366 " fill="transparent" id="Feature_User-to-logic_arc_int__baselibs__utils_scoped_op" style="stroke:#181818;stroke-width:1;"/><polygon fill="#181818" points="4154.17,160.35,4145.6261,155.4508,4149.1962,159.8388,4144.8082,163.4089,4154.17,160.35" style="stroke:#181818;stroke-width:1;"/><text fill="#000000" font-family="sans-serif" font-size="13" lengthAdjust="spacing" textLength="23.0103" x="3803" y="124.5669">use</text></g><!--link Feature_User to logic_arc_int__baselibs__condition_variable--><g id="link_Feature_User_logic_arc_int__baselibs__condition_variable"><path codeLine="26" d="M2918,81.55 C2918,106.45 2918,132.26 2918,152.26 " fill="transparent" id="Feature_User-to-logic_arc_int__baselibs__condition_variable" style="stroke:#181818;stroke-width:1;"/><polygon fill="#181818" points="2918,158.26,2922,149.26,2918,153.26,2914,149.26,2918,158.26" style="stroke:#181818;stroke-width:1;"/><text fill="#000000" font-family="sans-serif" font-size="13" lengthAdjust="spacing" textLength="23.0103" x="2919" y="124.5669">use</text></g><!--link Feature_User to logic_arc_int__baselibs__json--><g id="link_Feature_User_logic_arc_int__baselibs__json"><path codeLine="27" d="M2872.94,45.17 C2652.2,48.61 1662.98,65.95 854,111.5 C593.13,126.19 527.72,129.97 268,158.5 C261.72,159.19 261.236,159.215 254.746,160.005 " fill="transparent" id="Feature_User-to-logic_arc_int__baselibs__json" style="stroke:#181818;stroke-width:1;"/><polygon fill="#181818" points="248.79,160.73,258.2074,163.6132,253.7534,160.1258,257.2407,155.6718,248.79,160.73" style="stroke:#181818;stroke-width:1;"/><text fill="#000000" font-family="sans-serif" font-size="13" lengthAdjust="spacing" textLength="23.0103" x="855" y="124.5669">use</text></g><!--link Feature_User to logic_arc_int__baselibs__result--><g id="link_Feature_User_logic_arc_int__baselibs__result"><path codeLine="28" d="M2872.79,45.67 C2673.76,50.93 1855.76,73.84 1185,111.5 C901.12,127.44 829.77,128.79 547,158.5 C541.55,159.07 541.9403,159.0006 536.3203,159.6506 " fill="transparent" id="Feature_User-to-logic_arc_int__baselibs__result" style="stroke:#181818;stroke-width:1;"/><polygon fill="#181818" points="530.36,160.34,539.76,163.2795,535.3269,159.7655,538.8408,155.3325,530.36,160.34" style="stroke:#181818;stroke-width:1;"/><text fill="#000000" font-family="sans-serif" font-size="13" lengthAdjust="spacing" textLength="23.0103" x="1186" y="124.5669">use</text></g><!--reverse link logic_arc_int__baselibs__condition_variable to comp_arc_sta__baselibs__concurrency--><g id="link_logic_arc_int__baselibs__condition_variable_comp_arc_sta__baselibs__concurrency"><path codeLine="29" d="M2758.3534,199.2202 C2643.0634,213.1602 2487.24,231.33 2345,245.5 C2198.07,260.13 2030.01,273.95 1912.2,283.16 " fill="transparent" id="logic_arc_int__baselibs__condition_variable-backto-comp_arc_sta__baselibs__concurrency" style="stroke:#181818;stroke-width:1;"/><polygon fill="#181818" points="2764.31,198.5,2754.8949,195.6093,2759.3462,199.1002,2755.8552,203.5514,2764.31,198.5" style="stroke:#181818;stroke-width:1;"/><text fill="#000000" font-family="sans-serif" font-size="13" lengthAdjust="spacing" textLength="76.9082" x="2504" y="241.5669">implements</text></g><!--link Feature_User to logic_arc_int__baselibs__promise--><g id="link_Feature_User_logic_arc_int__baselibs__promise"><path codeLine="30" d="M2872.7,46.3 C2670.6,54.54 1831.1,91.29 1145,158.5 C1139.33,159.06 1139.5055,159.0176 1133.6555,159.6476 " fill="transparent" id="Feature_User-to-logic_arc_int__baselibs__promise" style="stroke:#181818;stroke-width:1;"/><polygon fill="#181818" points="1127.69,160.29,1137.0666,163.3033,1132.6613,159.7546,1136.21,155.3493,1127.69,160.29" style="stroke:#181818;stroke-width:1;"/><text fill="#000000" font-family="sans-serif" font-size="13" lengthAdjust="spacing" textLength="23.0103" x="1682" y="124.5669">use</text></g><!--reverse link logic_arc_int__baselibs__memory_shared to comp_arc_sta__baselibs__memory_shared--><g id="link_logic_arc_int__baselibs__memory_shared_comp_arc_sta__baselibs__memory_shared"><path codeLine="31" d="M4991,204.75 C4991,225.98 4991,253.94 4991,275.19 " fill="transparent" id="logic_arc_int__baselibs__memory_shared-backto-comp_arc_sta__baselibs__memory_shared" style="stroke:#181818;stroke-width:1;"/><polygon fill="#181818" points="4991,198.75,4987,207.75,4991,203.75,4995,207.75,4991,198.75" style="stroke:#181818;stroke-width:1;"/><text fill="#000000" font-family="sans-serif" font-size="13" lengthAdjust="spacing" textLength="76.9082" x="4992" y="241.5669">implements</text></g><!--reverse link logic_arc_int__baselibs__shared_future to comp_arc_sta__baselibs__concurrency--><g id="link_logic_arc_int__baselibs__shared_future_comp_arc_sta__baselibs__concurrency"><path codeLine="32" d="M2201.6545,199.8133 C2102.8045,221.1033 1949.57,254.11 1850.65,275.41 " fill="transparent" id="logic_arc_int__baselibs__shared_future-backto-comp_arc_sta__baselibs__concurrency" style="stroke:#181818;stroke-width:1;"/><polygon fill="#181818" points="2207.52,198.55,2197.8796,196.5346,2202.6321,199.6027,2199.5639,204.3553,2207.52,198.55" style="stroke:#181818;stroke-width:1;"/><text fill="#000000" font-family="sans-serif" font-size="13" lengthAdjust="spacing" textLength="76.9082" x="2062" y="241.5669">implements</text></g><!--link Feature_User to logic_arc_int__baselibs__utils_base64--><g id="link_Feature_User_logic_arc_int__baselibs__utils_base64"><path codeLine="33" d="M2963.31,47.08 C3150.89,57.91 3885.06,101.79 4487,158.5 C4492.85,159.05 4492.8405,159.0361 4498.8705,159.6461 " fill="transparent" id="Feature_User-to-logic_arc_int__baselibs__utils_base64" style="stroke:#181818;stroke-width:1;"/><polygon fill="#181818" points="4504.84,160.25,4496.2883,155.3645,4499.8654,159.7468,4495.4831,163.3239,4504.84,160.25" style="stroke:#181818;stroke-width:1;"/><text fill="#000000" font-family="sans-serif" font-size="13" lengthAdjust="spacing" textLength="23.0103" x="4145" y="124.5669">use</text></g><!--reverse link logic_arc_int__baselibs__message_passing to comp_arc_sta__baselibs__message_passing--><g id="link_logic_arc_int__baselibs__message_passing_comp_arc_sta__baselibs__message_passing"><path codeLine="34" d="M3955,204.75 C3955,225.98 3955,253.94 3955,275.19 " fill="transparent" id="logic_arc_int__baselibs__message_passing-backto-comp_arc_sta__baselibs__message_passing" style="stroke:#181818;stroke-width:1;"/><polygon fill="#181818" points="3955,198.75,3951,207.75,3955,203.75,3959,207.75,3955,198.75" style="stroke:#181818;stroke-width:1;"/><text fill="#000000" font-family="sans-serif" font-size="13" lengthAdjust="spacing" textLength="76.9082" x="3956" y="241.5669">implements</text></g><!--link Feature_User to logic_arc_int__baselibs__future--><g id="link_Feature_User_logic_arc_int__baselibs__future"><path codeLine="35" d="M2872.73,50.96 C2735.3,70.57 2325.4298,129.0623 2115.7098,158.9923 " fill="transparent" id="Feature_User-to-logic_arc_int__baselibs__future" style="stroke:#181818;stroke-width:1;"/><polygon fill="#181818" points="2109.77,159.84,2119.2449,162.5283,2114.7198,159.1336,2118.1146,154.6086,2109.77,159.84" style="stroke:#181818;stroke-width:1;"/><text fill="#000000" font-family="sans-serif" font-size="13" lengthAdjust="spacing" textLength="23.0103" x="2426" y="124.5669">use</text></g><!--reverse link logic_arc_int__baselibs__bit_mask_operator to comp_arc_sta__baselibs__bit_manipulation--><g id="link_logic_arc_int__baselibs__bit_mask_operator_comp_arc_sta__baselibs__bit_manipulation"><path codeLine="36" d="M5675.17,202.0055 C5642.21,223.2955 5594.47,254.14 5561.59,275.38 " fill="transparent" id="logic_arc_int__baselibs__bit_mask_operator-backto-comp_arc_sta__baselibs__bit_manipulation" style="stroke:#181818;stroke-width:1;"/><polygon fill="#181818" points="5680.21,198.75,5670.4797,200.2733,5676.01,201.4629,5674.8203,206.9933,5680.21,198.75" style="stroke:#181818;stroke-width:1;"/><text fill="#000000" font-family="sans-serif" font-size="13" lengthAdjust="spacing" textLength="76.9082" x="5633" y="241.5669">implements</text></g><!--reverse link logic_arc_int__baselibs__synchronized_queue to comp_arc_sta__baselibs__concurrency--><g id="link_logic_arc_int__baselibs__synchronized_queue_comp_arc_sta__baselibs__concurrency"><path codeLine="37" d="M1413.4517,200.1871 C1492.1717,221.4871 1612.88,254.15 1691.53,275.43 " fill="transparent" id="logic_arc_int__baselibs__synchronized_queue-backto-comp_arc_sta__baselibs__concurrency" style="stroke:#181818;stroke-width:1;"/><polygon fill="#181818" points="1407.66,198.62,1415.3028,204.8318,1412.4864,199.9259,1417.3923,197.1095,1407.66,198.62" style="stroke:#181818;stroke-width:1;"/><text fill="#000000" font-family="sans-serif" font-size="13" lengthAdjust="spacing" textLength="76.9082" x="1576" y="241.5669">implements</text></g><!--reverse link logic_arc_int__baselibs__utils_base64 to comp_arc_sta__baselibs__utils--><g id="link_logic_arc_int__baselibs__utils_base64_comp_arc_sta__baselibs__utils"><path codeLine="38" d="M4608.4223,201.3603 C4566.9923,222.6303 4505.79,254.05 4464.33,275.34 " fill="transparent" id="logic_arc_int__baselibs__utils_base64-backto-comp_arc_sta__baselibs__utils" style="stroke:#181818;stroke-width:1;"/><polygon fill="#181818" points="4613.76,198.62,4603.9266,199.1721,4609.312,200.9036,4607.5804,206.2889,4613.76,198.62" style="stroke:#181818;stroke-width:1;"/><text fill="#000000" font-family="sans-serif" font-size="13" lengthAdjust="spacing" textLength="76.9082" x="4554" y="241.5669">implements</text></g><!--link Feature_User to logic_arc_int__baselibs__executor--><g id="link_Feature_User_logic_arc_int__baselibs__executor"><path codeLine="39" d="M2872.98,46.22 C2697.21,53.02 2040.31,79.24 1500,111.5 C1210.43,128.79 1137.68,129.94 849,158.5 C843.22,159.07 843.2757,159.0494 837.3157,159.6894 " fill="transparent" id="Feature_User-to-logic_arc_int__baselibs__executor" style="stroke:#181818;stroke-width:1;"/><polygon fill="#181818" points="831.35,160.33,840.7256,163.3462,836.3214,159.7962,839.8715,155.3919,831.35,160.33" style="stroke:#181818;stroke-width:1;"/><text fill="#000000" font-family="sans-serif" font-size="13" lengthAdjust="spacing" textLength="23.0103" x="1501" y="124.5669">use</text></g><!--reverse link logic_arc_int__baselibs__future to comp_arc_sta__baselibs__concurrency--><g id="link_logic_arc_int__baselibs__future_comp_arc_sta__baselibs__concurrency"><path codeLine="40" d="M1943.4223,201.3603 C1901.9923,222.6303 1840.79,254.05 1799.33,275.34 " fill="transparent" id="logic_arc_int__baselibs__future-backto-comp_arc_sta__baselibs__concurrency" style="stroke:#181818;stroke-width:1;"/><polygon fill="#181818" points="1948.76,198.62,1938.9266,199.1721,1944.312,200.9036,1942.5804,206.2889,1948.76,198.62" style="stroke:#181818;stroke-width:1;"/><text fill="#000000" font-family="sans-serif" font-size="13" lengthAdjust="spacing" textLength="76.9082" x="1889" y="241.5669">implements</text></g><!--reverse link logic_arc_int__baselibs__task_result to comp_arc_sta__baselibs__concurrency--><g id="link_logic_arc_int__baselibs__task_result_comp_arc_sta__baselibs__concurrency"><path codeLine="41" d="M1702.8283,203.7752 C1716.6783,225.0052 1735.54,253.94 1749.41,275.19 " fill="transparent" id="logic_arc_int__baselibs__task_result-backto-comp_arc_sta__baselibs__concurrency" style="stroke:#181818;stroke-width:1;"/><polygon fill="#181818" points="1699.55,198.75,1701.1174,208.4733,1702.2819,202.9377,1707.8176,204.1022,1699.55,198.75" style="stroke:#181818;stroke-width:1;"/><text fill="#000000" font-family="sans-serif" font-size="13" lengthAdjust="spacing" textLength="76.9082" x="1730" y="241.5669">implements</text></g><!--link Feature_User to logic_arc_int__baselibs__synchronized_queue--><g id="link_Feature_User_logic_arc_int__baselibs__synchronized_queue"><path codeLine="42" d="M2872.71,47.94 C2698.79,61.21 2057.03,110.71 1529,158.5 C1523.16,159.03 1523.204,159.0124 1517.204,159.5724 " fill="transparent" id="Feature_User-to-logic_arc_int__baselibs__synchronized_queue" style="stroke:#181818;stroke-width:1;"/><polygon fill="#181818" points="1511.23,160.13,1520.5628,163.2763,1516.2084,159.6654,1519.8193,155.3109,1511.23,160.13" style="stroke:#181818;stroke-width:1;"/><text fill="#000000" font-family="sans-serif" font-size="13" lengthAdjust="spacing" textLength="23.0103" x="2065" y="124.5669">use</text></g><!--link Feature_User to logic_arc_int__baselibs__task_result--><g id="link_Feature_User_logic_arc_int__baselibs__task_result"><path codeLine="43" d="M2873,49.06 C2725.51,64.04 2243.35,113.39 1845,158.5 C1839.37,159.14 1839.5902,159.1003 1833.8002,159.7703 " fill="transparent" id="Feature_User-to-logic_arc_int__baselibs__task_result" style="stroke:#181818;stroke-width:1;"/><polygon fill="#181818" points="1827.84,160.46,1837.2401,163.3989,1832.8069,159.8853,1836.3205,155.452,1827.84,160.46" style="stroke:#181818;stroke-width:1;"/><text fill="#000000" font-family="sans-serif" font-size="13" lengthAdjust="spacing" textLength="23.0103" x="2259" y="124.5669">use</text></g><!--link Feature_User to logic_arc_int__baselibs__dynamic_array--><g id="link_Feature_User_logic_arc_int__baselibs__dynamic_array"><path codeLine="44" d="M2963.14,53.28 C3072.58,74.56 3348.1603,128.1448 3498.3303,157.3448 " fill="transparent" id="Feature_User-to-logic_arc_int__baselibs__dynamic_array" style="stroke:#181818;stroke-width:1;"/><polygon fill="#181818" points="3504.22,158.49,3496.149,152.8457,3499.3119,157.5356,3494.622,160.6986,3504.22,158.49" style="stroke:#181818;stroke-width:1;"/><text fill="#000000" font-family="sans-serif" font-size="13" lengthAdjust="spacing" textLength="23.0103" x="3343" y="124.5669">use</text></g><!--link Feature_User to logic_arc_int__baselibs__filesystem--><g id="link_Feature_User_logic_arc_int__baselibs__filesystem"><path codeLine="45" d="M2963.21,45.34 C3193.51,49.76 4259.38,71.51 5131,111.5 C5470.84,127.09 5556.22,127.48 5895,158.5 C5900.84,159.03 5900.8316,158.9953 5906.8516,159.6153 " fill="transparent" id="Feature_User-to-logic_arc_int__baselibs__filesystem" style="stroke:#181818;stroke-width:1;"/><polygon fill="#181818" points="5912.82,160.23,5904.2771,155.329,5907.8463,159.7178,5903.4576,163.2869,5912.82,160.23" style="stroke:#181818;stroke-width:1;"/><text fill="#000000" font-family="sans-serif" font-size="13" lengthAdjust="spacing" textLength="23.0103" x="5489" y="124.5669">use</text></g><!--reverse link logic_arc_int__baselibs__task to comp_arc_sta__baselibs__concurrency--><g id="link_logic_arc_int__baselibs__task_comp_arc_sta__baselibs__concurrency"><path codeLine="46" d="M2475.6159,198.147 C2384.4259,211.777 2260.74,229.96 2147,245.5 C2069.56,256.08 1983.25,267.13 1912.01,276.06 " fill="transparent" id="logic_arc_int__baselibs__task-backto-comp_arc_sta__baselibs__concurrency" style="stroke:#181818;stroke-width:1;"/><polygon fill="#181818" points="2481.55,197.26,2472.0576,194.6344,2476.6049,197.9991,2473.2402,202.5465,2481.55,197.26" style="stroke:#181818;stroke-width:1;"/><text fill="#000000" font-family="sans-serif" font-size="13" lengthAdjust="spacing" textLength="76.9082" x="2260" y="241.5669">implements</text></g><!--link Feature_User to logic_arc_int__baselibs__bit_manipulation--><g id="link_Feature_User_logic_arc_int__baselibs__bit_manipulation"><path codeLine="47" d="M2963.23,45.64 C3195.95,51.76 4281.76,83.21 5167,158.5 C5172.76,158.99 5172.6448,158.965 5178.5648,159.505 " fill="transparent" id="Feature_User-to-logic_arc_int__baselibs__bit_manipulation" style="stroke:#181818;stroke-width:1;"/><polygon fill="#181818" points="5184.54,160.05,5175.9406,155.249,5179.5607,159.5958,5175.2139,163.2159,5184.54,160.05" style="stroke:#181818;stroke-width:1;"/><text fill="#000000" font-family="sans-serif" font-size="13" lengthAdjust="spacing" textLength="23.0103" x="4739" y="124.5669">use</text></g><!--reverse link logic_arc_int__baselibs__result to comp_arc_sta__baselibs__result--><g id="link_logic_arc_int__baselibs__result_comp_arc_sta__baselibs__result"><path codeLine="48" d="M408.6582,204.7479 C409.2182,225.9779 409.94,253.94 410.5,275.19 " fill="transparent" id="logic_arc_int__baselibs__result-backto-comp_arc_sta__baselibs__result" style="stroke:#181818;stroke-width:1;"/><polygon fill="#181818" points="408.5,198.75,404.7387,207.8523,408.6318,203.7483,412.7359,207.6414,408.5,198.75" style="stroke:#181818;stroke-width:1;"/><text fill="#000000" font-family="sans-serif" font-size="13" lengthAdjust="spacing" textLength="76.9082" x="411" y="241.5669">implements</text></g><!--link Feature_User to logic_arc_int__baselibs__bit_mask_operator--><g id="link_Feature_User_logic_arc_int__baselibs__bit_mask_operator"><path codeLine="49" d="M2963.17,45.7 C3170.28,51.28 4049.99,75.97 4771,111.5 C5105.91,128 5189.81,131.01 5524,158.5 C5529.98,158.99 5530.103,158.9852 5536.253,159.5252 " fill="transparent" id="Feature_User-to-logic_arc_int__baselibs__bit_mask_operator" style="stroke:#181818;stroke-width:1;"/><polygon fill="#181818" points="5542.23,160.05,5533.6144,155.2781,5537.2492,159.6127,5532.9146,163.2475,5542.23,160.05" style="stroke:#181818;stroke-width:1;"/><text fill="#000000" font-family="sans-serif" font-size="13" lengthAdjust="spacing" textLength="23.0103" x="5099" y="124.5669">use</text></g><!--link Feature_User to logic_arc_int__baselibs__task--><g id="link_Feature_User_logic_arc_int__baselibs__task"><path codeLine="50" d="M2872.97,63.27 C2812.43,88.51 2710.9279,130.8309 2650.1079,156.1909 " fill="transparent" id="Feature_User-to-logic_arc_int__baselibs__task" style="stroke:#181818;stroke-width:1;"/><polygon fill="#181818" points="2644.57,158.5,2654.4162,158.7282,2649.1849,156.5757,2651.3374,151.3444,2644.57,158.5" style="stroke:#181818;stroke-width:1;"/><text fill="#000000" font-family="sans-serif" font-size="13" lengthAdjust="spacing" textLength="23.0103" x="2750" y="124.5669">use</text></g><!--reverse link logic_arc_int__baselibs__json to comp_arc_sta__baselibs__json--><g id="link_logic_arc_int__baselibs__json_comp_arc_sta__baselibs__json"><path codeLine="51" d="M131.121,204.7464 C130.381,225.9764 129.41,253.94 128.67,275.19 " fill="transparent" id="logic_arc_int__baselibs__json-backto-comp_arc_sta__baselibs__json" style="stroke:#181818;stroke-width:1;"/><polygon fill="#181818" points="131.33,198.75,127.0189,207.6052,131.1558,203.747,135.0141,207.8839,131.33,198.75" style="stroke:#181818;stroke-width:1;"/><text fill="#000000" font-family="sans-serif" font-size="13" lengthAdjust="spacing" textLength="76.9082" x="132" y="241.5669">implements</text></g><!--reverse link logic_arc_int__baselibs__dynamic_array to comp_arc_sta__baselibs__containers--><g id="link_logic_arc_int__baselibs__dynamic_array_comp_arc_sta__baselibs__containers"><path codeLine="52" d="M3568.7494,202.1252 C3537.4594,223.4152 3492.31,254.14 3461.1,275.38 " fill="transparent" id="logic_arc_int__baselibs__dynamic_array-backto-comp_arc_sta__baselibs__containers" style="stroke:#181818;stroke-width:1;"/><polygon fill="#181818" points="3573.71,198.75,3564.0189,200.5058,3569.5762,201.5627,3568.5192,207.1199,3573.71,198.75" style="stroke:#181818;stroke-width:1;"/><text fill="#000000" font-family="sans-serif" font-size="13" lengthAdjust="spacing" textLength="76.9082" x="3529" y="241.5669">implements</text></g><!--SRC=[hLPDRzim3BthLmYzfnk6OeUYw6N0JZrkPq6MsOIhFZoHQkiD- - -JatIBdJIo7Hzfaq_aUoGbRMruKGvVqQy5XqPoa5LW3axM6C4m1YysM8CaXWY1smPsDhY6MwcP8rQ9WSGTSMlXNbnhGbl9t-81FNm9DaGPeTvQtpPedZmGoK_N7yKVSVTX7oEquUntzHKqfmZoEq6yafha_eFgFaXXWckKZaOHQwKgJM2n8gKUqGArEKCdLsbrBsrOezawekVJZhSINMF1WMUIGlJEMTNdCB8P4-4pA8l4jp8Ho2dnjD6P3_MOke3fuGvSYEqUPKuuaLw3QZHHrdmFy1wn9dZMMRX81MA7f1oI-nvuXQoSzjWagxi-AnmnT1ztI6AqfUItFefCQB8keHa7dAanAKRmfYt0Dp4u95WQ5bx1f3mrVTm9hN1KzjHUohdMs4cXddL4NTaPxVo3EYMdHaMWPBdSl2EfF5N8J5B_YNqsjTuG5v8R3FooJJHOHXTrKcT_lYbMtji_nTe7ssfcWhrbk-W-egSyEX3rqI0ke4thpIO6Zx-oGZyJ95XwvRqfDfFL_njeeJayrOQNet8dqjl6c5dgAIscBgrU7bE3wzPhj_qLTJiz_F3Xiv1ONJcp-Jo-pCzcjMEjaD254f-OvpaA5ohfxhj27RihSUGCZ7kU3Rhd4Fil]--></g></svg>